HIERARCHY
ROOT joint_Root
{
	OFFSET 0.0 0.0 0.0
	CHANNELS 6 Xposition Yposition Zposition Zrotation Xrotation Yrotation 
	JOINT Hips
	{
		OFFSET -0.726466 93.3139 -2.00062
		CHANNELS 6 Xposition Yposition Zposition Zrotation Xrotation Yrotation 
		JOINT Spine
		{
			OFFSET 15.7357 0.0 0.0
			CHANNELS 6 Xposition Yposition Zposition Zrotation Xrotation Yrotation 
			JOINT Chest
			{
				OFFSET 8.98455 -0.406207 0.0
				CHANNELS 6 Xposition Yposition Zposition Zrotation Xrotation Yrotation 
				JOINT Neck
				{
					OFFSET 16.3773 0.0 0.0
					CHANNELS 6 Xposition Yposition Zposition Zrotation Xrotation Yrotation 
					JOINT Head
					{
						OFFSET 6.45672 0.0 0.0
						CHANNELS 6 Xposition Yposition Zposition Zrotation Xrotation Yrotation 
						End Site
						{
							OFFSET 0.0 0.0 0.0
						}
					}
				}
				JOINT Shoulder_L
				{
					OFFSET 12.9942 -0.242716 4.98039
					CHANNELS 6 Xposition Yposition Zposition Zrotation Xrotation Yrotation 
					JOINT UpperArm_L
					{
						OFFSET 5.34809 0.0 0.0
						CHANNELS 6 Xposition Yposition Zposition Zrotation Xrotation Yrotation 
						JOINT LowerArm_L
						{
							OFFSET 24.3286 1.87007e-05 0.0
							CHANNELS 6 Xposition Yposition Zposition Zrotation Xrotation Yrotation 
							JOINT Hand_L
							{
								OFFSET 22.2916 0.0 0.0
								CHANNELS 6 Xposition Yposition Zposition Zrotation Xrotation Yrotation 
								End Site
								{
									OFFSET 0.0 0.0 0.0
								}
							}
						}
					}
				}
				JOINT Shoulder_R
				{
					OFFSET 12.9945 -0.242716 -4.98039
					CHANNELS 6 Xposition Yposition Zposition Zrotation Xrotation Yrotation 
					JOINT UpperArm_R
					{
						OFFSET -5.34813 0.0 0.0
						CHANNELS 6 Xposition Yposition Zposition Zrotation Xrotation Yrotation 
						JOINT LowerArm_R
						{
							OFFSET -24.3289 0.000322201 0.0
							CHANNELS 6 Xposition Yposition Zposition Zrotation Xrotation Yrotation 
							JOINT Hand_R
							{
								OFFSET -22.2915 -0.000108084 0.0
								CHANNELS 6 Xposition Yposition Zposition Zrotation Xrotation Yrotation 
								End Site
								{
									OFFSET 0.0 0.0 0.0
								}
							}
						}
					}
				}
			}
		}
		JOINT UpperLeg_L
		{
			OFFSET -2.19248 -6.46944 0.0
			CHANNELS 6 Xposition Yposition Zposition Zrotation Xrotation Yrotation 
			JOINT LowerLeg_L
			{
				OFFSET 39.0811 0.0 -1.23785e-05
				CHANNELS 6 Xposition Yposition Zposition Zrotation Xrotation Yrotation 
				JOINT Foot_L
				{
					OFFSET 40.9854 0.0 -1.26872e-05
					CHANNELS 6 Xposition Yposition Zposition Zrotation Xrotation Yrotation 
					JOINT Toes_L
					{
						OFFSET 11.7543 0.0 0.0
						CHANNELS 6 Xposition Yposition Zposition Zrotation Xrotation Yrotation 
						End Site
						{
							OFFSET 0.0 0.0 0.0
						}
					}
				}
			}
		}
		JOINT UpperLeg_R
		{
			OFFSET -2.19251 6.46944 0.0
			CHANNELS 6 Xposition Yposition Zposition Zrotation Xrotation Yrotation 
			JOINT LowerLeg_R
			{
				OFFSET -39.0811 -0.00228153 -0.0401928
				CHANNELS 6 Xposition Yposition Zposition Zrotation Xrotation Yrotation 
				JOINT Foot_R
				{
					OFFSET -40.9854 0.0 0.0
					CHANNELS 6 Xposition Yposition Zposition Zrotation Xrotation Yrotation 
					JOINT Toes_R
					{
						OFFSET -11.7543 0.0 0.0
						CHANNELS 6 Xposition Yposition Zposition Zrotation Xrotation Yrotation 
						End Site
						{
							OFFSET 0.0 0.0 0.0
						}
					}
				}
			}
		}
	}
}
MOTION
Frames:	6
Frame Time:	0.0333333
0.000000 0.000000 0.000000 0.000000 0.000000 -0.000000 5.873960 79.625800 73.739700 -82.299600 0.600314 176.688000 15.735700 0.000005 -0.000001 85.880100 79.293900 -81.744100 8.984550 -0.406207 -0.000000 13.654900 -1.308870 8.431080 16.377300 -0.000001 -0.000001 2.573620 -0.322456 -0.783472 6.456720 -0.000001 -0.000000 -1.379350 2.438220 -2.685510 12.994200 -0.242716 4.980390 -88.807700 -3.176270 -69.413100 5.348090 -0.000007 -0.000001 -69.044400 30.176600 -0.847526 24.328600 0.000019 0.000005 -3.070370 -3.204010 -43.815100 22.291600 -0.000001 0.000005 -5.425360 5.576790 -10.041800 12.994500 -0.242716 -4.980390 87.977600 4.859690 -67.372200 -5.348130 -0.000001 -0.000004 -47.611900 21.737700 -24.636600 -24.328900 0.000322 -0.000009 -10.981000 -7.883890 -54.739100 -22.291500 -0.000108 -0.000004 0.211455 5.573230 -9.854400 -2.192480 -6.469440 -0.000000 -170.874000 -4.665930 -24.080900 39.081100 -0.000007 -0.000012 -0.094717 -0.048331 117.042000 40.985400 -0.000006 -0.000013 8.894230 -5.033090 -36.167200 11.754300 -0.000000 0.000003 -0.006611 -0.076297 -19.682500 -2.192510 6.469440 -0.000001 -170.677000 8.558630 150.908000 -39.081100 -0.002282 -0.040193 0.219766 -0.095307 66.251100 -40.985400 0.000008 0.000006 6.246810 -4.199990 -90.213400 -11.754300 -0.000006 -0.000006 -0.002703 -0.037199 -18.085800
0.000000 0.000000 0.000000 0.000000 0.000000 -0.000000 5.252900 80.516900 65.059400 -84.202000 3.011730 175.925000 15.735700 0.000005 -0.000001 93.434900 79.837000 -90.284700 8.984550 -0.406207 -0.000000 12.496600 1.336350 6.153360 16.377300 -0.000001 -0.000001 2.837980 -0.845939 0.182530 6.456720 -0.000001 -0.000000 -0.506114 0.338916 -2.537410 12.994200 -0.242716 4.980390 -88.868200 -2.848520 -68.320600 5.348090 -0.000007 -0.000001 -70.533100 30.266700 4.802960 24.328600 0.000019 0.000005 -0.774467 -0.847756 -42.417000 22.291600 -0.000001 0.000005 -6.967910 5.577650 -10.086500 12.994500 -0.242716 -4.980390 88.491100 3.763800 -68.135200 -5.348130 -0.000001 -0.000004 -46.324300 18.987400 -30.251900 -24.328900 0.000322 -0.000009 -13.110600 -7.894640 -59.467900 -22.291500 -0.000108 -0.000004 0.322139 5.571280 -9.753880 -2.192480 -6.469440 -0.000000 -176.349000 -8.319420 -33.901400 39.081100 -0.000007 -0.000012 -0.210596 -0.110686 117.729000 40.985400 -0.000006 -0.000013 10.670600 -8.096650 -42.341700 11.754300 -0.000000 0.000003 -0.006450 -0.074875 -19.624500 -2.192510 6.469440 -0.000001 -174.833000 8.291350 159.432000 -39.081100 -0.002282 -0.040193 0.168234 -0.089894 61.424300 -40.985400 0.000008 0.000006 5.851330 -1.725790 -91.822500 -11.754300 -0.000006 -0.000006 -0.257805 -0.351418 -19.769600
0.000000 0.000000 0.000000 0.000000 0.000000 -0.000000 4.174740 83.010800 55.739900 -87.018300 5.623550 174.695000 15.735700 0.000005 -0.000001 101.140000 80.446900 -99.448800 8.984550 -0.406207 -0.000000 10.944000 3.710850 3.025750 16.377300 -0.000001 -0.000001 3.514430 -0.928232 0.749072 6.456720 -0.000001 -0.000000 -0.172529 -1.608800 -1.649390 12.994200 -0.242716 4.980390 -88.644700 -3.182100 -66.916500 5.348090 -0.000007 -0.000001 -71.945700 30.181800 10.238100 24.328600 0.000019 0.000005 -3.561310 -3.843000 -42.879600 22.291600 -0.000001 0.000005 -7.302680 5.579360 -10.177500 12.994500 -0.242716 -4.980390 88.950700 2.697990 -68.739400 -5.348130 -0.000001 -0.000004 -45.365000 17.570400 -33.547700 -24.328900 0.000322 -0.000009 -13.546100 -6.909830 -63.462400 -22.291500 -0.000108 -0.000004 0.441623 5.570240 -9.700630 -2.192480 -6.469440 -0.000000 177.566000 -10.062500 -40.638100 39.081100 -0.000007 -0.000012 -0.157677 -0.056273 109.644000 40.985400 -0.000006 -0.000013 8.409300 -8.355300 -49.276500 11.754300 -0.000000 0.000003 -0.007226 -0.081599 -19.898900 -2.192510 6.469440 -0.000001 179.467000 7.113600 168.053000 -39.081100 -0.002282 -0.040193 0.050976 -0.036381 52.689400 -40.985400 0.000008 0.000006 5.794430 1.810430 -83.810000 -11.754300 -0.000006 -0.000006 -1.255650 -1.293160 -27.478200
0.000000 0.000000 0.000000 0.000000 0.000000 -0.000000 3.125230 86.537200 46.315200 -88.942000 7.265660 173.527000 15.735700 0.000005 -0.000001 106.348000 80.938700 -105.799000 8.984550 -0.406207 -0.000000 9.627560 5.079820 0.669926 16.377300 -0.000001 -0.000001 4.177180 -0.452838 1.008190 6.456720 -0.000001 -0.000000 0.071817 -2.782470 -0.992963 12.994200 -0.242716 4.980390 -88.183900 -4.007470 -65.596000 5.348090 -0.000007 -0.000001 -73.488300 27.669900 14.808500 24.328600 0.000019 0.000005 -3.842740 -4.061900 -43.479100 22.291600 -0.000001 0.000005 -7.678630 5.573900 -9.889510 12.994500 -0.242716 -4.980390 89.436900 1.491730 -69.318800 -5.348130 -0.000001 -0.000004 -45.347800 17.581600 -35.668900 -24.328900 0.000322 -0.000009 -14.305400 -6.584160 -65.786200 -22.291500 -0.000108 -0.000004 0.088614 5.570090 -9.692200 -2.192480 -6.469440 -0.000000 174.047000 -9.608700 -43.742200 39.081100 -0.000007 -0.000012 -0.051924 -0.004196 94.631100 40.985400 -0.000006 -0.000013 6.236900 -7.031250 -55.253500 11.754300 -0.000000 0.000003 -0.005386 -0.065163 -19.228400 -2.192510 6.469440 -0.000001 174.728000 7.420460 175.748000 -39.081100 -0.002282 -0.040193 0.037898 -0.037407 42.790100 -40.985400 0.000008 0.000006 5.650700 6.022240 -68.989300 -11.754300 -0.000006 -0.000006 -0.151218 -0.557137 -40.143200
0.000000 0.000000 0.000000 0.000000 0.000000 -0.000000 2.355230 90.132300 37.147500 -89.544400 8.271210 172.795000 15.735700 0.000005 -0.000001 110.759000 81.223800 -110.828000 8.984550 -0.406207 -0.000000 8.688390 6.189950 -0.608704 16.377300 -0.000001 -0.000001 5.025020 -0.269679 1.194230 6.456720 -0.000001 -0.000000 -0.144383 -3.502150 -0.681868 12.994200 -0.242716 4.980390 -87.665000 -5.045850 -65.127200 5.348090 -0.000007 -0.000001 -74.761800 24.624800 18.465500 24.328600 0.000019 0.000005 -4.215160 -4.348250 -44.188900 22.291600 -0.000001 0.000005 -7.621700 5.568180 -9.595130 12.994500 -0.242716 -4.980390 89.854100 0.391636 -69.569300 -5.348130 -0.000001 -0.000004 -46.468400 18.095200 -36.397100 -24.328900 0.000322 -0.000009 -13.446200 -5.898160 -66.739400 -22.291500 -0.000108 -0.000004 -0.706487 5.562030 -9.286860 -2.192480 -6.469440 -0.000000 173.245000 -8.969450 -42.866800 39.081100 -0.000007 -0.000012 0.024605 -0.006993 74.119400 40.985400 -0.000006 -0.000013 5.457910 -6.962100 -59.514300 11.754300 -0.000000 0.000003 -0.005191 -0.063311 -19.152900 -2.192510 6.469440 -0.000001 171.592000 9.335270 -178.379000 -39.081100 -0.002282 -0.040193 0.058420 -0.082385 33.787900 -40.985400 0.000008 0.000006 4.654640 10.852300 -48.652100 -11.754300 -0.000006 -0.000006 -0.241948 -0.710626 -47.377000
0.000000 0.000000 0.000000 0.000000 0.000000 -0.000000 1.946190 92.725700 28.024000 -88.011400 8.539530 173.615000 15.735700 0.000005 -0.000001 113.565000 80.889000 -113.413000 8.984550 -0.406207 -0.000000 8.980180 7.248590 -0.267229 16.377300 -0.000001 -0.000001 5.573650 -0.316333 1.340290 6.456720 -0.000001 -0.000000 -0.740729 -4.155320 -0.363951 12.994200 -0.242716 4.980390 -87.235800 -5.998710 -65.203100 5.348090 -0.000007 -0.000001 -75.371100 21.777200 20.589500 24.328600 0.000019 0.000005 -5.356250 -5.324380 -45.296000 22.291600 -0.000001 0.000005 -6.973110 5.560690 -9.221030 12.994500 -0.242716 -4.980390 90.007900 -0.021915 -70.164500 -5.348130 -0.000001 -0.000004 -47.292100 18.476800 -35.818600 -24.328900 0.000322 -0.000009 -12.840400 -5.470200 -67.301800 -22.291500 -0.000108 -0.000004 -1.102290 5.560170 -9.195500 -2.192480 -6.469440 -0.000000 175.703000 -9.192180 -36.853200 39.081100 -0.000007 -0.000012 0.042542 -0.036746 49.178700 40.985400 -0.000006 -0.000013 4.895890 -5.388600 -62.395200 11.754300 -0.000000 0.000003 -0.005668 -0.067798 -19.335800 -2.192510 6.469440 -0.000001 170.278000 10.483600 -172.717000 -39.081100 -0.002282 -0.040193 0.091816 -0.168595 27.698700 -40.985400 0.000008 0.000006 -3.222740 11.083200 -30.870100 -11.754300 -0.000006 -0.000006 -0.048919 -0.293883 -28.674000
